<?xml version="1.0" encoding="utf-8"?>
<!-- Generator: Adobe Illustrator 23.0.1, SVG Export Plug-In . SVG Version: 6.00 Build 0)  -->
<svg version="1.1" id="Capa_1" xmlns="http://www.w3.org/2000/svg" xmlns:xlink="http://www.w3.org/1999/xlink" x="0px" y="0px"
	 viewBox="0 0 27.8 23.9" style="enable-background:new 0 0 27.8 23.9;" xml:space="preserve">
<g>
	<path d="M24.5,3.1c-1.3-1.4-3.1-2.1-5-2.1s-3.7,0.7-5,2.1l-0.7,0.7l-0.7-0.7C11.8,1.7,10,1,8.2,1c-1.9,0-3.7,0.7-5,2.1
		c-2.7,2.7-2.7,7.2,0,10l9.9,9.9c0.1,0.1,0.4,0.3,0.6,0.3c0.1,0,0.1,0,0.2,0c0.3,0,0.6-0.1,0.8-0.3l9.9-9.9
		C27.3,10.3,27.3,5.8,24.5,3.1z M23,11.5l-9.1,9.1l-9.2-9.1c-1.9-1.9-1.9-5,0-6.9c0.9-0.9,2.2-1.4,3.5-1.4s2.5,0.5,3.5,1.4L13.1,6
		c0.4,0.4,1.2,0.4,1.5,0L16,4.6c0.9-0.9,2.2-1.4,3.5-1.4S22,3.6,23,4.6C24.9,6.5,24.9,9.6,23,11.5z"/>
</g>
</svg>
