<?xml version="1.0" encoding="utf-8"?>
<!-- Generator: Adobe Illustrator 23.0.1, SVG Export Plug-In . SVG Version: 6.00 Build 0)  -->
<svg version="1.1" id="Capa_1" xmlns="http://www.w3.org/2000/svg" xmlns:xlink="http://www.w3.org/1999/xlink" x="0px" y="0px"
	 viewBox="0 0 17 14.9" style="enable-background:new 0 0 17 14.9;" xml:space="preserve">
<style type="text/css">
	.st0{fill:#FF0000;}
</style>
<g>
	<path class="st0" d="M15.6,1.4C14.7,0.5,13.5,0,12.3,0C11,0,9.8,0.5,8.9,1.4L8.5,1.8L8.1,1.4C7.2,0.5,6,0,4.7,0
		C3.5,0,2.3,0.5,1.4,1.4c-1.8,1.8-1.8,4.8,0,6.7L8,14.7c0.1,0.1,0.2,0.2,0.4,0.2c0,0,0.1,0,0.1,0c0.2,0,0.4-0.1,0.5-0.2l6.6-6.6
		C17.5,6.2,17.5,3.2,15.6,1.4z"/>
</g>
</svg>
